<svg width="100" height="100" viewBox="0 0 100 100" fill="none" xmlns="http://www.w3.org/2000/svg">
<path fill-rule="evenodd" clip-rule="evenodd" d="M84.089 86.5781C75.1579 94.9051 63.174 100 50 100C36.8247 100 24.8396 94.904 15.9083 86.5756C17.735 82.7431 20.1707 79.2103 23.1498 76.137C30.2613 68.8006 39.8858 64.6819 49.913 64.6588C49.9412 64.6589 49.9695 64.6589 49.9977 64.6589C50.0261 64.6589 50.0544 64.6589 50.0827 64.6588C55.0353 64.6702 59.9397 65.6819 64.5195 67.6389C69.1254 69.6071 73.3147 72.4937 76.8463 76.137C79.8014 79.1855 82.2474 82.7139 84.089 86.5781ZM87.0585 83.5665C85.1174 79.8165 82.6462 76.3733 79.7184 73.3529C75.8213 69.3325 71.1913 66.14 66.0912 63.9606C64.137 63.1256 62.1287 62.4457 60.0839 61.9246C66.4896 58.1817 70.7787 50.9894 70.7787 42.8299C70.7787 30.8778 61.5757 21.0009 49.9977 21.0009C38.4198 21.0009 29.2168 30.8778 29.2168 42.8299C29.2168 50.9893 33.5058 58.1816 39.9115 61.9246C32.535 63.8046 25.7303 67.7279 20.2777 73.3529C17.3292 76.3947 14.8663 79.8408 12.939 83.5637C4.89839 74.6906 0 62.9174 0 50C0 22.3858 22.3858 0 50 0C77.6142 0 100 22.3858 100 50C100 62.9187 95.1006 74.6931 87.0585 83.5665ZM50.0761 60.6587C50.0501 60.6587 50.024 60.6587 49.998 60.6587C49.9718 60.6587 49.9456 60.6587 49.9195 60.6587C40.7875 60.614 33.2168 52.752 33.2168 42.8299C33.2168 32.8795 40.8308 25.0009 49.9977 25.0009C59.1646 25.0009 66.7787 32.8795 66.7787 42.8299C66.7787 52.7519 59.208 60.614 50.0761 60.6587Z" fill="#C5C5C5"/>
</svg>
