<svg width="29" height="30" viewBox="0 0 29 30" fill="none" xmlns="http://www.w3.org/2000/svg">
<path fill-rule="evenodd" clip-rule="evenodd" d="M24.0608 25.9383C21.5085 28.1859 18.1628 29.5486 14.5 29.5486C10.8369 29.5486 7.49105 28.1857 4.93867 25.9378C5.455 24.8178 6.15452 23.7869 7.01636 22.8948C9.00061 20.8409 11.6821 19.6908 14.4721 19.6833C14.4812 19.6833 14.4903 19.6833 14.4994 19.6833C14.5085 19.6833 14.5177 19.6833 14.5268 19.6833C15.9047 19.6869 17.2695 19.9696 18.5447 20.5163C19.8283 21.0666 20.9969 21.8743 21.9829 22.8948C22.8374 23.7793 23.5401 24.8086 24.0608 25.9383ZM25.5435 24.4283C24.9743 23.3585 24.2605 22.3739 23.4212 21.5052C22.2529 20.2958 20.8639 19.3346 19.3328 18.6781C19.0214 18.5446 18.7054 18.4243 18.3857 18.3172C19.9499 17.072 20.9459 15.0979 20.9459 12.9136C20.9459 9.22992 18.1132 6.14393 14.4994 6.14393C10.8856 6.14393 8.05291 9.22992 8.05291 12.9136C8.05291 15.098 9.04891 17.0721 10.6132 18.3173C8.72947 18.9479 6.99978 20.0335 5.57798 21.5052C4.73299 22.3798 4.02139 23.3652 3.45603 24.4277C1.30076 21.8885 0 18.5967 0 15C0 6.96505 6.49187 0.451416 14.5 0.451416C22.5081 0.451416 29 6.96505 29 15C29 18.597 27.699 21.889 25.5435 24.4283ZM14.5238 17.6832C14.5157 17.6832 14.5077 17.6832 14.4996 17.6832C14.4914 17.6832 14.4833 17.6832 14.4751 17.6832C12.0834 17.6693 10.0529 15.5939 10.0529 12.9136C10.0529 10.2243 12.0972 8.14393 14.4994 8.14393C16.9016 8.14393 18.9459 10.2243 18.9459 12.9136C18.9459 15.5938 16.9154 17.6692 14.5238 17.6832Z" fill="#C5C5C5"/>
</svg>
